<?xml version="1.0" encoding="UTF-8" standalone="no"?>
<svg
   xmlns:dc="http://purl.org/dc/elements/1.1/"
   xmlns:cc="http://creativecommons.org/ns#"
   xmlns:rdf="http://www.w3.org/1999/02/22-rdf-syntax-ns#"
   xmlns:svg="http://www.w3.org/2000/svg"
   xmlns="http://www.w3.org/2000/svg"
   xmlns:sodipodi="http://sodipodi.sourceforge.net/DTD/sodipodi-0.dtd"
   xmlns:inkscape="http://www.inkscape.org/namespaces/inkscape"
   inkscape:export-ydpi="600"
   inkscape:export-xdpi="600"
   inkscape:export-filename="D:\bitmap.png"
   inkscape:version="0.92.4 (5da689c313, 2019-01-14)"
   sodipodi:docname="logo.svg"
   id="svg2902"
   xml:space="preserve"
   enable-background="new 0 0 1000 1000"
   viewBox="0 0 980 887.90002"
   y="0px"
   x="0px"
   version="1.1"
   width="980"
   height="887.90002"><defs
   id="defs2906" /><sodipodi:namedview
   inkscape:current-layer="svg2902"
   inkscape:window-maximized="1"
   inkscape:window-y="-8"
   inkscape:window-x="-8"
   inkscape:cy="317.88374"
   inkscape:cx="492.03252"
   inkscape:zoom="0.246"
   showgrid="false"
   id="namedview2904"
   inkscape:window-height="1017"
   inkscape:window-width="1920"
   inkscape:pageshadow="2"
   inkscape:pageopacity="0"
   guidetolerance="10"
   gridtolerance="10"
   objecttolerance="10"
   borderopacity="1"
   inkscape:document-rotation="0"
   bordercolor="#666666"
   pagecolor="#ffffff" />
<metadata
   id="metadata2892"> Svg Vector Icons : http://www.onlinewebfonts.com/icon <rdf:RDF><cc:Work
     rdf:about=""><dc:format>image/svg+xml</dc:format><dc:type
       rdf:resource="http://purl.org/dc/dcmitype/StillImage" /></cc:Work></rdf:RDF></metadata>

<g
   id="g1397"><path
     inkscape:export-ydpi="600"
     inkscape:export-xdpi="600"
     inkscape:export-filename="D:\logo.png"
     style="fill:#000000;fill-opacity:1"
     inkscape:connector-curvature="0"
     id="path2894"
     d="m 619.6,413.8 c 49,-42.5 80.7,-108.2 80.7,-182.1 C 700.3,103.9 606,0 490.2,0 374.4,0 280.1,103.9 280.1,231.6 c 0,73.9 31.7,139.7 80.7,182.1 -129.1,56.9 -220.7,196 -220.7,358.4 v 77.2 c 0,21.3 15.7,38.6 35,38.6 h 630.2 c 19.4,0 35,-17.3 35,-38.6 V 772.1 C 840.3,609.7 748.7,470.7 619.6,413.8 Z M 350.1,231.7 c 0,-85.2 62.8,-154.4 140.1,-154.4 77.2,0 140.1,69.3 140.1,154.4 0,85.2 -62.8,154.4 -140.1,154.4 -77.3,0 -140.1,-69.3 -140.1,-154.4 z M 770.3,810.8 H 210.1 v -38.6 c 0,-170.3 125.7,-308.9 280.1,-308.9 154.4,0 280.1,138.6 280.1,308.9 z" /><path
     inkscape:export-ydpi="600"
     inkscape:export-xdpi="600"
     inkscape:export-filename="D:\logo.png"
     style="fill:#ffffff;fill-opacity:1"
     inkscape:connector-curvature="0"
     id="path2896"
     d="m 228.4,449.5 6.8,-1.8 c 14.7,-5.4 25.1,-19.6 25.1,-36.3 0,-16.1 -9.8,-29.9 -23.6,-35.7 -37.5,-18.8 -61.7,-60 -61.7,-105.4 0,-51.5 30.7,-94.8 72.9,-109.9 7.4,-25.1 18.5,-48.4 32.8,-68.9 2.5,-4.5 5.1,-9 7.8,-13.3 -2.8,-0.2 -5.5,-0.9 -8.4,-0.9 -96.5,0 -175.1,86.6 -175.1,193.1 0,48.9 16.9,94.7 45.5,129.5 C 59.4,451.9 0,556 0,673.8 v 59.7 c 0,21.3 15.7,38.6 35,38.6 h 62.7 c 0,-26.4 2.4,-52.3 7.1,-77.2 H 70 V 673.8 C 70,567.1 135.1,475.5 228.4,449.5 Z" /><path
     inkscape:export-ydpi="600"
     inkscape:export-xdpi="600"
     inkscape:export-filename="D:\logo.png"
     style="fill:#ffffff;fill-opacity:1"
     inkscape:connector-curvature="0"
     id="path2898"
     d="M 829.4,399.8 C 858.1,365 875,319.2 875,270.3 875,163.8 796.5,77.2 699.9,77.2 c -2.9,0 -5.6,0.8 -8.4,0.9 2.7,4.4 5.3,8.8 7.8,13.3 14.2,20.6 25.4,43.8 32.8,68.9 42.2,15 72.9,58.4 72.9,109.9 0,45.4 -24.2,86.7 -61.7,105.4 -13.9,5.8 -23.6,19.6 -23.6,35.7 0,16.7 10.5,30.9 25.1,36.3 l 6.8,1.8 C 844.9,475.4 910,567 910,673.7 V 695 h -34.8 c 4.6,25 7.1,50.8 7.1,77.2 H 945 c 19.4,0 35,-17.3 35,-38.6 V 673.9 C 980,556 920.6,451.9 829.4,399.8 Z" /><path
     style="fill:#007bff;fill-opacity:1;stroke-width:4.06504011"
     d="m 454.8909,378.52451 c -43.52644,-13.96384 -80.97637,-53.34005 -95.10194,-99.99365 -10.14628,-33.51091 -6.99643,-83.29565 7.23494,-114.35114 12.97353,-28.31065 45.11759,-61.45431 71.2096,-73.42406 29.67164,-13.6119 76.86706,-12.59453 107.21978,2.31128 107.43754,52.76113 108.49767,222.93081 1.71632,275.4991 -31.09095,15.30602 -64.40389,18.90107 -92.2787,9.95847 z"
     id="path3472"
     inkscape:connector-curvature="0" /><path
     style="fill:#007bff;fill-opacity:1;stroke-width:4.06504011"
     d="m 211.54472,779.49183 c 0,-60.53285 17.20257,-124.04874 47.98154,-177.15898 22.33382,-38.53782 73.85785,-87.03623 113.59701,-106.92631 104.71736,-52.4127 215.97078,-34.00422 300.15222,49.6645 62.90719,62.52402 95.05358,141.20051 95.1491,232.87205 l 0.0307,29.47154 H 490 211.54472 Z"
     id="path3474"
     inkscape:connector-curvature="0" /></g></svg>