<?xml version="1.0" encoding="UTF-8" standalone="no"?>
<svg
   xmlns:dc="http://purl.org/dc/elements/1.1/"
   xmlns:cc="http://creativecommons.org/ns#"
   xmlns:rdf="http://www.w3.org/1999/02/22-rdf-syntax-ns#"
   xmlns:svg="http://www.w3.org/2000/svg"
   xmlns="http://www.w3.org/2000/svg"
   xmlns:sodipodi="http://sodipodi.sourceforge.net/DTD/sodipodi-0.dtd"
   xmlns:inkscape="http://www.inkscape.org/namespaces/inkscape"
   inkscape:export-ydpi="96"
   inkscape:export-xdpi="96"
   inkscape:export-filename="/Users/macbookpro/Downloads/7a79e80741ba5bea3b5fa79635322432.png"
   inkscape:version="1.0beta2 (2b71d25, 2019-12-03)"
   sodipodi:docname="7a79e80741ba5bea3b5fa79635322432.svg"
   id="svg2902"
   xml:space="preserve"
   enable-background="new 0 0 1000 1000"
   viewBox="0 0 1000 1000"
   y="0px"
   x="0px"
   version="1.1"><defs
   id="defs2906" /><sodipodi:namedview
   inkscape:current-layer="svg2902"
   inkscape:window-maximized="1"
   inkscape:window-y="23"
   inkscape:window-x="0"
   inkscape:cy="373.98374"
   inkscape:cx="388.21138"
   inkscape:zoom="0.246"
   showgrid="false"
   id="namedview2904"
   inkscape:window-height="685"
   inkscape:window-width="1280"
   inkscape:pageshadow="2"
   inkscape:pageopacity="0"
   guidetolerance="10"
   gridtolerance="10"
   objecttolerance="10"
   borderopacity="1"
   inkscape:document-rotation="0"
   bordercolor="#666666"
   pagecolor="#ffffff" />
<metadata
   id="metadata2892"> Svg Vector Icons : http://www.onlinewebfonts.com/icon <rdf:RDF><cc:Work
     rdf:about=""><dc:format>image/svg+xml</dc:format><dc:type
       rdf:resource="http://purl.org/dc/dcmitype/StillImage" /></cc:Work></rdf:RDF></metadata>
<path
   d="m 629.6,469.8 c 49,-42.5 80.7,-108.2 80.7,-182.1 C 710.3,159.9 616,56 500.2,56 384.4,56 290.1,159.9 290.1,287.6 c 0,73.9 31.7,139.7 80.7,182.1 -129.1,56.9 -220.7,196 -220.7,358.4 v 77.2 c 0,21.3 15.7,38.6 35,38.6 h 630.2 c 19.4,0 35,-17.3 35,-38.6 V 828.1 C 850.3,665.7 758.7,526.7 629.6,469.8 Z M 360.1,287.7 c 0,-85.2 62.8,-154.4 140.1,-154.4 77.2,0 140.1,69.3 140.1,154.4 0,85.2 -62.8,154.4 -140.1,154.4 -77.3,0 -140.1,-69.3 -140.1,-154.4 z M 780.3,866.8 H 220.1 v -38.6 c 0,-170.3 125.7,-308.9 280.1,-308.9 154.4,0 280.1,138.6 280.1,308.9 z"
   id="path2894"
   inkscape:connector-curvature="0" /><path
   d="m 238.4,505.5 6.8,-1.8 c 14.7,-5.4 25.1,-19.6 25.1,-36.3 0,-16.1 -9.8,-29.9 -23.6,-35.7 -37.5,-18.8 -61.7,-60 -61.7,-105.4 0,-51.5 30.7,-94.8 72.9,-109.9 7.4,-25.1 18.5,-48.4 32.8,-68.9 2.5,-4.5 5.1,-9 7.8,-13.3 -2.8,-0.2 -5.5,-0.9 -8.4,-0.9 -96.5,0 -175.1,86.6 -175.1,193.1 0,48.9 16.9,94.7 45.5,129.5 C 69.4,507.9 10,612 10,729.8 v 59.7 c 0,21.3 15.7,38.6 35,38.6 h 62.7 c 0,-26.4 2.4,-52.3 7.1,-77.2 H 80 V 729.8 C 80,623.1 145.1,531.5 238.4,505.5 Z"
   id="path2896"
   inkscape:connector-curvature="0" /><path
   d="M 839.4,455.8 C 868.1,421 885,375.2 885,326.3 885,219.8 806.5,133.2 709.9,133.2 c -2.9,0 -5.6,0.8 -8.4,0.9 2.7,4.4 5.3,8.8 7.8,13.3 14.2,20.6 25.4,43.8 32.8,68.9 42.2,15 72.9,58.4 72.9,109.9 0,45.4 -24.2,86.7 -61.7,105.4 -13.9,5.8 -23.6,19.6 -23.6,35.7 0,16.7 10.5,30.9 25.1,36.3 l 6.8,1.8 C 854.9,531.4 920,623 920,729.7 V 751 h -34.8 c 4.6,25 7.1,50.8 7.1,77.2 H 955 c 19.4,0 35,-17.3 35,-38.6 V 729.9 C 990,612 930.6,507.9 839.4,455.8 Z"
   id="path2898"
   inkscape:connector-curvature="0" />
<path
   inkscape:connector-curvature="0"
   id="path3472"
   d="m 464.8909,434.52451 c -43.52644,-13.96384 -80.97637,-53.34005 -95.10194,-99.99365 -10.14628,-33.51091 -6.99643,-83.29565 7.23494,-114.35114 12.97353,-28.31065 45.11759,-61.45431 71.2096,-73.42406 29.67164,-13.6119 76.86706,-12.59453 107.21978,2.31128 107.43754,52.76113 108.49767,222.93081 1.71632,275.4991 -31.09095,15.30602 -64.40389,18.90107 -92.2787,9.95847 z"
   style="fill:#2b85d4;stroke-width:4.06504;fill-opacity:1" /><path
   inkscape:connector-curvature="0"
   id="path3474"
   d="m 221.54472,835.49183 c 0,-60.53285 17.20257,-124.04874 47.98154,-177.15898 22.33382,-38.53782 73.85785,-87.03623 113.59701,-106.92631 104.71736,-52.4127 215.97078,-34.00422 300.15222,49.6645 62.90719,62.52402 95.05358,141.20051 95.1491,232.87205 l 0.0307,29.47154 H 500 221.54472 Z"
   style="fill:#2b85d4;fill-opacity:1;stroke-width:4.06504" /></svg>
